<?xml version="1.0" encoding="utf-8"?>
<!-- Generator: Adobe Illustrator 16.0.0, SVG Export Plug-In . SVG Version: 6.00 Build 0)  -->
<!DOCTYPE svg PUBLIC "-//W3C//DTD SVG 1.1//EN" "http://www.w3.org/Graphics/SVG/1.1/DTD/svg11.dtd">
<svg version="1.1" id="Layer_1" xmlns="http://www.w3.org/2000/svg" xmlns:xlink="http://www.w3.org/1999/xlink" x="0px" y="0px"
	 width="100px" height="100px" viewBox="0 0 100 100" enable-background="new 0 0 100 100" xml:space="preserve">
<path fill="#CCD0D2" d="M10,21.875v56.25C10,87.441,27.628,95,49.375,95S88.75,87.441,88.75,78.125v-56.25H10z"/>
<path fill="#ADB0B2" d="M77.5,44.375c1.555,0,2.813-1.258,2.813-2.813c0-1.552-1.258-2.813-2.813-2.813s-2.813,1.261-2.813,2.813
	C74.688,43.117,75.945,44.375,77.5,44.375z M77.5,58.438c-1.555,0-2.813,1.261-2.813,2.813c0,1.555,1.258,2.813,2.813,2.813
	s2.813-1.258,2.813-2.813C80.313,59.698,79.055,58.438,77.5,58.438z M77.5,78.125c-1.555,0-2.813,1.258-2.813,2.813
	s1.258,2.813,2.813,2.813s2.813-1.258,2.813-2.813S79.055,78.125,77.5,78.125z"/>
<path fill="#B7BBBD" d="M49.375,58.44c21.747,0,39.375-8.144,39.375-18.193c0-0.514-0.077-1.014-0.165-1.517
	c-1.67,9.336-18.572,16.678-39.21,16.678S11.84,48.072,10.165,38.73C10.077,39.233,10,39.733,10,40.247
	C10,50.291,27.628,58.44,49.375,58.44z M49.375,75.096c-20.638,0-37.535-7.336-39.21-16.678C10.077,58.921,10,59.421,10,59.935
	c0,10.044,17.628,18.193,39.375,18.193S88.75,69.984,88.75,59.935c0-0.514-0.077-1.014-0.165-1.517
	C86.915,67.754,70.016,75.096,49.375,75.096z"/>
<path fill="#C2C5C7" d="M18.438,88.543V21.875H10v56.25C10,82.059,13.167,85.673,18.438,88.543z"/>
<g>
	<path fill="#B2B5B7" d="M18.438,71.165v-3.049c-4.62-2.719-7.616-6.051-8.272-9.698C10.077,58.921,10,59.421,10,59.935
		C10,64.178,13.167,68.069,18.438,71.165z M18.438,51.478v-3.049c-4.62-2.719-7.616-6.051-8.272-9.7
		C10.077,39.233,10,39.733,10,40.247C10,44.49,13.167,48.382,18.438,51.478z"/>
</g>
<path fill="#E4E7E7" d="M49.375,5C71.122,5,88.75,12.559,88.75,21.875S71.122,38.75,49.375,38.75S10,31.191,10,21.875
	S27.628,5,49.375,5z"/>
</svg>
