<?xml version="1.0" encoding="utf-8"?>
<!-- Generator: Adobe Illustrator 16.0.0, SVG Export Plug-In . SVG Version: 6.00 Build 0)  -->
<!DOCTYPE svg PUBLIC "-//W3C//DTD SVG 1.1//EN" "http://www.w3.org/Graphics/SVG/1.1/DTD/svg11.dtd">
<svg version="1.1" id="Layer_1" xmlns="http://www.w3.org/2000/svg" xmlns:xlink="http://www.w3.org/1999/xlink" x="0px" y="0px"
	 width="100px" height="100px" viewBox="0 0 100 100" enable-background="new 0 0 100 100" xml:space="preserve">
<path fill="#B7B7B7" d="M53.994,59.988l5.992-5.994l28.358,28.359l-5.991,5.991L53.994,59.988z"/>
<path fill="#EFC84A" d="M92.679,89.927l-3.344,3.343c-2.307,2.308-6.048,2.308-8.353,0L61.477,73.766
	c-2.306-2.308-2.306-6.048,0-8.355l3.343-3.342c2.307-2.307,6.048-2.307,8.353,0l19.507,19.505
	C94.983,83.879,94.983,87.621,92.679,89.927z"/>
<path fill="#E0E0E0" d="M36.312,5c17.295,0,31.312,14.021,31.312,31.313c0,17.292-14.017,31.313-31.312,31.313
	C19.019,67.626,5,53.605,5,36.313C5,19.021,19.019,5,36.312,5z"/>
<path fill="#2CA4D5" d="M36.312,12.09c13.377,0,24.223,10.845,24.223,24.222S49.689,60.535,36.312,60.535S12.09,49.689,12.09,36.313
	C12.09,22.936,22.935,12.09,36.312,12.09z"/>
<path fill="#66B6DE" d="M35.722,38.085c7.178,0,12.997,3.703,12.997,8.271c0,4.569-5.819,8.271-12.997,8.271
	c-7.179,0-12.998-3.704-12.998-8.271C22.724,41.789,28.543,38.085,35.722,38.085z"/>
<path fill="#2084AB" d="M36.312,16.816c12.58,0,22.915,9.592,24.104,21.86c0.074-0.78,0.119-1.566,0.119-2.364
	c0-13.376-10.846-24.222-24.223-24.222S12.09,22.936,12.09,36.313c0,0.797,0.043,1.584,0.119,2.363
	C13.397,26.408,23.732,16.816,36.312,16.816z"/>
<path fill="#D2AF40" d="M92.679,89.927c1.069-1.071,1.622-2.451,1.698-3.856c-1.252,0.077-2.481,0.573-3.437,1.528l-3.342,3.342
	c-1.092,1.093-1.594,2.539-1.537,3.971c1.198-0.184,2.352-0.719,3.274-1.643L92.679,89.927z"/>
</svg>
